<svg width="24" height="24" viewBox="0 0 24 24" fill="none" xmlns="http://www.w3.org/2000/svg">
<path d="M16.5706 21.6186C17.7924 22.261 18.9716 21.4055 18.738 20.0439L17.8623 14.9379C17.8708 14.9875 21.5592 11.3612 21.5592 11.3612C22.5477 10.3976 22.0985 9.01182 20.7313 8.81316L15.6046 8.0682C15.6544 8.07545 13.3453 3.44694 13.3453 3.44694C12.7344 2.20903 11.2776 2.20809 10.6662 3.44694L8.37348 8.09253C8.39578 8.04736 3.28026 8.81316 3.28026 8.81316C1.91414 9.01167 1.46308 10.3968 2.45236 11.3612L6.16209 14.9772C6.12602 14.9421 5.27355 20.0439 5.27355 20.0439C5.04019 21.4045 6.21819 22.2615 7.441 21.6186L12.0265 19.2079C11.9819 19.2313 16.5706 21.6186 16.5706 21.6186Z" fill="#FFD101"/>
</svg>
