<svg width="24" height="24" viewBox="0 0 24 24" fill="none" xmlns="http://www.w3.org/2000/svg">
<path fill-rule="evenodd" clip-rule="evenodd" d="M17.738 18.0439C17.9716 19.4055 16.7924 20.261 15.5706 19.6187C15.5706 19.6187 10.9819 17.2314 11.0265 17.2079L6.441 19.6187C5.21819 20.2615 4.04019 19.4045 4.27355 18.0439C4.27355 18.0439 5.12602 12.9421 5.16209 12.9773L1.45236 9.36119C0.463083 8.39688 0.914145 7.0117 2.28026 6.81319C2.28026 6.81319 7.39578 6.04739 7.37348 6.09256L9.66622 1.44697C10.2776 0.208124 11.7344 0.209065 12.3453 1.44697C12.3453 1.44697 14.6544 6.07548 14.6046 6.06823L19.7313 6.81319C21.0985 7.01185 21.5477 8.39761 20.5592 9.36119C20.5592 9.36119 16.8708 12.9876 16.8623 12.9379L17.738 18.0439ZM6.41798 17.3719L10.0958 15.4377C10.6344 15.1545 11.3784 15.1552 11.9157 15.4377L15.6026 17.376L14.891 13.276C14.7881 12.6762 15.0187 11.9689 15.4534 11.5451L18.4242 8.64931L14.317 8.04745C13.7147 7.95994 13.1133 7.52212 12.8446 6.9777L11.007 3.25433L9.16693 6.9777C8.89759 7.52343 8.29534 7.96015 7.69454 8.04745L3.58258 8.64496L6.55808 11.5451C6.99388 11.9699 7.22311 12.6776 7.12048 13.276L6.41798 17.3719Z" fill="#A6CFE2"/>
</svg>
